<svg id="Layer_1" data-name="Layer 1" xmlns="http://www.w3.org/2000/svg" width="382.37988" height="381.84326" viewBox="0 0 382.37988 381.84326">
  <defs>
    <style>
      .cls-1 {
        fill: gray;
        opacity: 0.95;
      }
    </style>
  </defs>
  <title>circleText</title>
  <g>
    <path class="cls-1" d="M573.27441,305.49463l3.65625,1.59863-6.21191,14.209c-1.51465,3.46386-.27246,5.95507,2.80664,7.30127,3.11035,1.36035,5.78223.58007,7.29688-2.88428l6.21191-14.2085,3.65625,1.59864-6.18359,14.14453c-2.48243,5.67724-7.76563,6.57617-12.416,4.543-4.68262-2.04737-7.48242-6.48047-5-12.15723Z" transform="translate(-314.39258 -293.21436)"/>
    <path class="cls-1" d="M617.53125,329.29053l-13.23242,20.45459-3.35059-2.16748-.21289-21.77393-9.86719,15.25244-3.35058-2.16748L600.75,318.43457l3.35059,2.16748.23144,21.74414,9.84863-15.22314Z" transform="translate(-314.39258 -293.21436)"/>
    <path class="cls-1" d="M626.03906,336.17236l3.06836,2.55225L613.5498,357.43115l-3.06835-2.55176Z" transform="translate(-314.39258 -293.21436)"/>
    <path class="cls-1" d="M633.34277,374.43164l-.53613,8.5-3.46484-3.708.46-6.27392a12.40541,12.40541,0,0,1-2.69824-2.22119,12.20776,12.20776,0,1,1,6.23925,3.70312Zm-3.707-6.06885c3.29785,3.5293,8.24414,3.69678,12.25977-.05468,4.01465-3.75147,4.13183-8.6504.834-12.17969s-8.19336-3.74512-12.208.00683C626.50586,359.88672,626.33789,364.8335,629.63574,368.36279Z" transform="translate(-314.39258 -293.21436)"/>
    <path class="cls-1" d="M659.69336,371.22607l2.20019,3.32764-12.93164,8.55078c-3.15234,2.08447-3.46386,4.84961-1.61035,7.65186,1.87207,2.83154,4.53809,3.62744,7.69141,1.543l12.93066-8.55078,2.2002,3.32763-12.87207,8.51221c-5.167,3.4165-10.08985,1.30176-12.88867-2.93115-2.81836-4.26172-2.75977-9.50244,2.40722-12.919Z" transform="translate(-314.39258 -293.21436)"/>
    <path class="cls-1" d="M678.293,410.4165l-4.03711-8.54443-6.45606,3.05029,3.58887,7.59522-2.94336,1.39062-3.58886-7.59521-6.74024,3.18506,4.03711,8.54492L659.21,419.43359l-5.74219-12.15234,22.02637-10.40771,5.74219,12.15234Z" transform="translate(-314.39258 -293.21436)"/>
    <path class="cls-1" d="M674.01758,451.229l-2.24707-9.93261-5.23242-.61035-.91895-4.062,25.67969,3.12549,1.01855,4.50586-21.834,13.873-.92676-4.09619Zm13.08008-8.16113-11.90528-1.39746,1.75293,7.74854Z" transform="translate(-314.39258 -293.21436)"/>
    <path class="cls-1" d="M696.77246,482.63184l-24.32031,1.46533-.24024-3.9834L689.625,467.03564l-18.13477,1.09278L671.25,464.145l24.31934-1.46533.24023,3.9834-17.37793,13.07617,18.10059-1.09082Z" transform="translate(-314.39258 -293.21436)"/>
    <path class="cls-1" d="M682.18555,513.585c-7.45117-.75781-11.4961-6.30469-10.707-14.0708l.80371-7.9043,24.20019,2.46094-.80371,7.90479C694.88965,509.74023,689.67188,514.3457,682.18555,513.585Zm-7.46875-13.7417c-.58008,5.71143,2.38086,9.10791,7.88281,9.66748,5.53613.56348,9.26074-2.15429,9.84082-7.86523l.40039-3.93506-17.72363-1.80176Z" transform="translate(-314.39258 -293.21436)"/>
    <path class="cls-1" d="M685.48145,549.22949c-1.71973,4.77442-5.60547,8.02539-10.71192,8.15821l1.624-4.51172a6.79667,6.79667,0,0,0,5.79493-4.832c1.63574-4.54493-.40528-8.999-5.5752-10.86036s-9.61523.25782-11.251,4.80176a6.79564,6.79564,0,0,0,1.38379,7.417l-1.624,4.51075c-3.85059-3.35743-4.73926-8.32715-3.01953-13.10157a12.42413,12.42413,0,0,1,23.37891,8.418Z" transform="translate(-314.39258 -293.21436)"/>
    <path class="cls-1" d="M672.56641,576.877c-2.80469,5.04785-7.08789,5.91114-10.54493,3.99024a6.92359,6.92359,0,0,1-3.35156-8.3086l-11.73437.36719,2.31152-4.16113,11.22461-.16992,1.47852-2.66114-8.50489-4.72558,1.93848-3.48731,21.26269,11.81348Zm-2.84473-1.58105,2.1416-3.85449-7.1289-3.96094-2.14161,3.85449c-1.51269,2.72266-.69336,4.7793,1.417,5.95313C666.15137,578.47754,668.208,578.01855,669.72168,575.2959Z" transform="translate(-314.39258 -293.21436)"/>
    <path class="cls-1" d="M651.64355,602.36523l5.67383-7.55957-5.71191-4.28613-5.043,6.71973-2.60449-1.9541,5.043-6.71973-5.96387-4.47559-5.67285,7.55957-2.60449-1.9541,8.06836-10.75195,19.48828,14.624-8.06836,10.752Z" transform="translate(-314.39258 -293.21436)"/>
    <path class="cls-1" d="M623.208,609.26367l7.207-7.19726-2.27441-4.75391,2.94726-2.94336,11.04883,23.39551-3.26953,3.26465-23.38184-11.07715,2.97266-2.96875Zm13.88086,6.71582-5.166-10.81836-5.62207,5.61426Z" transform="translate(-314.39258 -293.21436)"/>
    <path class="cls-1" d="M626.08691,632.60352l-13.63183,10.11621-1.93945-2.61328,5.20019-3.85938L603.1582,619.32715l3.2041-2.37793,12.55762,16.91992,5.22754-3.87988Z" transform="translate(-314.39258 -293.21436)"/>
    <path class="cls-1" d="M604.35352,647.69824l-3.4336,2.03223L588.53418,628.7959l3.43359-2.03125Z" transform="translate(-314.39258 -293.21436)"/>
    <path class="cls-1" d="M576.12793,661.88281l-3.8418,1.69922L570.7998,637.6377l4.22559-1.86915,18.22949,18.53809-3.90625,1.72754-14.77929-15.58594Z" transform="translate(-314.39258 -293.21436)"/>
    <path class="cls-1" d="M549.58789,666.919l9.10059-2.5459-1.92383-6.876-8.08887,2.2627-.877-3.13477,8.08887-2.2627-2.00782-7.17968-9.10156,2.5459-.87695-3.13477,12.94336-3.62109,6.56347,23.46-12.94336,3.62109Z" transform="translate(-314.39258 -293.21436)"/>
    <path class="cls-1" d="M504.28711,663.27344c-.40137-7.47754,4.4541-12.3291,12.24609-12.74805l7.93164-.42578,1.30469,24.28516-7.93164.42578C510.0459,675.22949,504.69043,670.78613,504.28711,663.27344Zm12.4209-9.49805c-5.73047.30762-8.62891,3.75781-8.333,9.27832.29883,5.55567,3.55762,8.81543,9.28809,8.50781l3.94824-.21191-.95508-17.78613Z" transform="translate(-314.39258 -293.21436)"/>
    <path class="cls-1" d="M481.94434,670.63086l9.41406.832.6289-7.1123-8.36816-.73926.28662-3.24317,8.36817.74024.65625-7.42676-9.41407-.832.28711-3.24316L497.19141,650.79l-2.14453,24.26758-13.38917-1.1836Z" transform="translate(-314.39258 -293.21436)"/>
    <path class="cls-1" d="M468.63135,646.51074c4.74463,1.07324,7.81006,4.49317,6.86035,8.69141l-4.16406-.94141c.26953-1.98437-.74073-3.86328-3.4375-4.47363-2.73047-.61719-4.59864.50293-5.0542,2.5166-1.29688,5.73438,12.13965,4.86328,10.16308,13.60156-.94189,4.16407-4.83935,6.00977-9.68652,4.91309-4.54-1.02637-7.208-4.1416-6.63037-8.28125l4.30078.97266c-.22656,1.63574.84131,3.41992,3.2832,4.04394,2.23731.57813,4.22559-.12109,4.74268-2.40723,1.2124-5.35937-12.10547-4.85546-10.14453-13.52539C459.667,648.07129,463.34082,645.31348,468.63135,646.51074Z" transform="translate(-314.39258 -293.21436)"/>
    <path class="cls-1" d="M445.24316,665.47461l-3.77343-1.29981,7.92187-23.00195,3.773,1.29981Z" transform="translate(-314.39258 -293.21436)"/>
    <path class="cls-1" d="M414.10449,644.28027l4.30225,2.12012a6.91585,6.91585,0,0,0,4.21631,6.17481c4.33349,2.13476,8.99023.60546,11.35742-4.19922s.75879-9.46094-3.57471-11.59668a7.36663,7.36663,0,0,0-9.95752,2.626l8.1958,4.03809-1.40771,2.8584L415.209,640.376l1.377-2.79493a11.99631,11.99631,0,0,1,15.41357-4.03613,12.42775,12.42775,0,0,1-10.98584,22.2959C416.46045,653.59766,413.66455,649.37109,414.10449,644.28027Z" transform="translate(-314.39258 -293.21436)"/>
    <path class="cls-1" d="M385.49463,633.084,399.7998,613.3623l3.23,2.34278-.94825,21.75586L412.749,622.75488l3.23047,2.34278-14.30566,19.72168-3.23-2.34278.92773-21.72754-10.647,14.67774Z" transform="translate(-314.39258 -293.21436)"/>
    <path class="cls-1" d="M388.56006,602.49805c3.45947,3.4209,4.25195,7.94629,1.22461,11.00683l-3.03613-3.00293c1.27832-1.541,1.415-3.6709-.55127-5.61523-1.99073-1.96875-4.16895-2.00586-5.6211-.53809-4.13476,4.18164,7.731,10.55078,1.43018,16.92188-3.00244,3.03613-7.28711,2.54-10.82129-.95508-3.31006-3.27344-3.92627-7.3291-1.2461-10.53613l3.13575,3.10058c-1.05762,1.26856-1.09522,3.34766.64746,5.16992,1.59326,1.67383,3.6499,2.13282,5.29883.46485,3.86425-3.90723-7.70606-10.52539-1.45459-16.84668C380.126,599.08008,384.70264,598.68262,388.56006,602.49805Z" transform="translate(-314.39258 -293.21436)"/>
    <path class="cls-1" d="M349.78076,594.80859l-7.89453-11.93847,2.71484-1.79492,5.69385,8.61132,5.98389-3.957-4.43945-6.71386,2.71484-1.79493,4.43945,6.71289,8.874-5.86718,2.20019,3.32714Z" transform="translate(-314.39258 -293.21436)"/>
    <path class="cls-1" d="M354.54639,554.05957a12.44367,12.44367,0,1,1-16.52637-6.0459A12.17708,12.17708,0,0,1,354.54639,554.05957Zm-3.145,1.45508c-2.02783-4.38379-6.67432-6.0918-11.66211-3.78418-4.9878,2.30664-6.63135,6.92383-4.60352,11.30762,2.02735,4.38379,6.61035,6.12109,11.59815,3.81445C351.72168,564.54492,353.42871,559.89844,351.40137,555.51465Z" transform="translate(-314.39258 -293.21436)"/>
    <path class="cls-1" d="M321.59326,535.377c-1.54053-5.56738.9082-9.18652,4.72022-10.24218a6.9254,6.9254,0,0,1,8.21728,3.57324l8.10987-8.49219,1.2705,4.58887-7.88525,7.99316.8125,2.93555,9.37891-2.5957,1.06494,3.8457-23.44776,6.49023Zm3.1377-.86914,1.17675,4.251,7.86084-2.17578-1.17675-4.251c-.83106-3.002-2.85791-3.89453-5.18555-3.25C325.04443,529.73535,323.8999,531.50586,324.731,534.50781Z" transform="translate(-314.39258 -293.21436)"/>
    <path class="cls-1" d="M317.82227,488.6001l.55615,9.43457,7.12842-.41992-.49414-8.38672,3.24951-.19141.49463,8.38672,7.44238-.43848-.55615-9.43457,3.25-.19238.791,13.418-24.32031,1.43506-.791-13.41846Z" transform="translate(-314.39258 -293.21436)"/>
    <path class="cls-1" d="M315.92725,461.229l.34423-4.186,23.49366,11.09766-.37842,4.60449-24.99414,7.14551.34961-4.25586,20.75244-5.52735Z" transform="translate(-314.39258 -293.21436)"/>
    <path class="cls-1" d="M324.16846,435.54834l-2.10938,9.2124,6.96045,1.59375,1.875-8.18847,3.17285.72656-1.875,8.18847,7.26758,1.66407,2.10938-9.21241,3.17285.72657-3,13.10156-23.74658-5.4375,3-13.10156Z" transform="translate(-314.39258 -293.21436)"/>
    <path class="cls-1" d="M327.03076,416.603c2.04932-5.40039,6.165-6.87158,9.86328-5.46826a6.9253,6.9253,0,0,1,4.51367,7.74169l11.5625-2.05273-1.689,4.45117-11.08643,1.78418-1.08056,2.84717,9.09912,3.45313-1.416,3.73144L324.0498,424.4585Zm3.04395,1.15527-1.56494,4.124,7.626,2.894,1.56494-4.124c1.10547-2.91308-.00146-4.83105-2.25976-5.688C333.1499,414.09473,331.18018,414.84521,330.07471,417.7583Z" transform="translate(-314.39258 -293.21436)"/>
    <path class="cls-1" d="M333.79248,400.34619l2.1626-3.8833,13.16894.88379-7.68554-10.73,2.1455-3.853,9.62989,14.57666,7.70556,4.29151-1.9414,3.48584-7.70557-4.291Z" transform="translate(-314.39258 -293.21436)"/>
    <path class="cls-1" d="M373.61377,367.1748l-2.9165,3.30713,7.40136,6.52735-2.63916,2.99218-18.24023-16.08789,5.55566-6.29882c3.81934-4.33008,8.16114-4.28028,11.127-1.66455C376.5,358.2417,377.80371,362.42432,373.61377,367.1748Zm-2.44043-2.15283c2.06006-2.33545,1.85742-4.38086.02-6.001-1.88965-1.667-3.91748-1.58936-5.978.74658l-2.9165,3.30713,5.958,5.25439Z" transform="translate(-314.39258 -293.21436)"/>
    <path class="cls-1" d="M381.87207,338.89746c4.39844-3.74414,8.71338-3.04932,11.27734-.03711a6.925,6.925,0,0,1,.22364,8.95752l11.11963,3.7749-3.62549,3.08594-10.57276-3.78027-2.31933,1.97363,6.30761,7.41064-3.03857,2.58692-15.76953-18.52686Zm2.11035,2.479-3.35888,2.85889,5.28662,6.21094,3.35888-2.85889c2.37256-2.019,2.32715-4.23291.76123-6.07226C388.44238,339.64893,386.355,339.35693,383.98242,341.37646Z" transform="translate(-314.39258 -293.21436)"/>
    <path class="cls-1" d="M419.69092,341.83057a12.441,12.441,0,1,1,4.19092-17.08789A12.17375,12.17375,0,0,1,419.69092,341.83057Zm-1.79151-2.96534c4.1333-2.49755,5.31934-7.30224,2.478-12.00488s-7.61035-5.82861-11.74365-3.33105-5.35547,7.24218-2.51416,11.94482S413.76611,341.36279,417.89941,338.86523Z" transform="translate(-314.39258 -293.21436)"/>
    <path class="cls-1" d="M435.33447,306.72559l3.727-1.52149,6.62793,16.23731c1.667,4.08349-.0957,7.63867-3.98486,9.22607-3.88916,1.58789-7.63623.28125-9.30322-3.80225l3.72705-1.52148c.7998,1.8667,2.26318,2.85742,4.24023,2.05029,1.97656-.80664,2.36084-2.55175,1.59375-4.43164Z" transform="translate(-314.39258 -293.21436)"/>
    <path class="cls-1" d="M464.5127,300.99365l-9.14209,2.39746,1.81152,6.90723,8.12646-2.13135.82569,3.14893-8.126,2.13135,1.8916,7.2124,9.1416-2.39795.82618,3.14892-13.002,3.41016-6.18115-23.56592,13.00195-3.41015Z" transform="translate(-314.39258 -293.21436)"/>
    <path class="cls-1" d="M485.40625,294.1333c5.04688-.53564,9.667,1.54346,12.01367,6.08154l-4.76806.50586a6.7964,6.7964,0,0,0-6.87647-3.10693c-4.80273.50928-7.92139,4.28955-7.3418,9.75391s4.42579,8.541,9.229,8.03125a6.79485,6.79485,0,0,0,6.0708-4.48047l4.76855-.50586c-1.34179,4.9292-5.42724,7.897-10.47363,8.43213a12.42508,12.42508,0,1,1-2.62207-24.71143Z" transform="translate(-314.39258 -293.21436)"/>
    <path class="cls-1" d="M506.17969,293.21436l16.9541.79931-.15332,3.251-6.4668-.30469-.99219,21.04443-3.98535-.188.99219-21.04444-6.502-.30664Z" transform="translate(-314.39258 -293.21436)"/>
    <path class="cls-1" d="M530.47754,319.81689a2.55479,2.55479,0,1,1,2.87012-2.15283A2.52457,2.52457,0,0,1,530.47754,319.81689Z" transform="translate(-314.39258 -293.21436)"/>
  </g>
</svg>
