<svg id="Layer_1" data-name="Layer 1" xmlns="http://www.w3.org/2000/svg" width="1134.96911" height="240.49934" viewBox="0 0 1134.96911 240.49934">
  <defs>
    <style>
      .cls-1 {
        fill: #fff;
      }
    </style>
  </defs>
  <title>signature</title>
  <g>
    <path class="cls-1" d="M614.294,223.35628q-3.70826,3.19629-10.73536,9.32911-13.03637,11.502-33.73974,29.13867-20.70411,17.63672-44.53906,36.35937-23.83668,18.72071-46.2002,33.48438-22.366,14.76123-38.7876,20.51172-16.4231,5.751-22.30127-2.42774-4.85816-8.05224-1.40576-23.13183,3.45043-15.082,13.03565-32.97364a204.69815,204.69815,0,0,1,23.32373-34.37793,144.9402,144.9402,0,0,1,29.58593-27.28613q15.846-10.79736,31.69483-11.75781,15.84521-.958,29.77783,12.333a2.73484,2.73484,0,0,1,.7666,3.25879,6.85314,6.85314,0,0,1-2.42822,2.876q-1.66187.895-4.53662-.25586a14.76174,14.76174,0,0,1-4.85645-3.06738q-1.98339-1.916-.95849-3.4502-14.82715-8.56055-31.43946-1.85351-16.615,6.71045-32.14209,22.62109a198.96565,198.96565,0,0,0-27.22168,34.9541q-11.69383,19.04151-16.86963,35.27247-5.176,16.229-.95849,23.64355,4.21728,5.62207,18.65918-.89453,14.44042-6.51855,34.82568-20.7041,20.3833-14.18555,42.30225-31.50293,21.917-17.31592,41.02441-33.35645,19.10449-16.0371,31.11963-26.39062,2.42579-2.17091,4.47315-3.834,4.72631-4.08837,3.13085-4.3457-1.5996-.25343-7.34863,1.27832-1.66187.38379-3.57812.7666-5.113,1.28028-8.94629,2.17285-3.83422.89649-7.668,1.85352-3.83422.958-8.94629,2.1084a2.16392,2.16392,0,0,1-2.17236,1.78906,6.49387,6.49387,0,0,1-3.57862-.83008,4.76119,4.76119,0,0,1-2.36425-2.49219q-.575-1.53369,1.27783-3.13183,1.85156-1.59667,7.60449-2.875,21.854-5.36865,43.83594-10.09668a13.51585,13.51585,0,0,1,1.78906-.38281,17.37241,17.37241,0,0,0,5.04785-1.53418A28.34033,28.34033,0,0,0,618,211.08675c.084-.084.16992-.16894.25537-.25488q6.00586-4.98486,12.14111-10.22461,15.846-13.41944,32.27-26.583,16.4209-13.16161,33.29248-24.41015a61.50855,61.50855,0,0,1,7.41211-3.89746,67.296,67.296,0,0,1,9.84082-3.64258q4.98414-1.4048,7.668-.5752,2.68433.8335.895,5.30371-3.06738,6.64746-11.50244,20.001Q701.83788,180.16,695.064,190.2557q-3.19556,5.1123-4.60058,7.15625a5.25469,5.25469,0,0,1-.7666,1.02246,2.22548,2.22548,0,0,0-.63916,1.15039q0,.38379,1.1499.25586,3.45117-.63867,10.28809-1.46973a133.5458,133.5458,0,0,1,13.54687-.959q6.70973-.12452,9.90479,1.15039,1.78857,1.1499,1.981,2.23633a1.284,1.284,0,0,1-.89453,1.53418,3.44307,3.44307,0,0,1-2.74756-.31934q-2.17528-.76758-8.94629-.06445-6.77563.70458-13.99414,1.85351-7.22167,1.14991-10.67138,1.78907a2.39393,2.39393,0,0,1-.76709.12793,6.25315,6.25315,0,0,0-3.25879,1.40527,9.90353,9.90353,0,0,0-1.981,2.8125,2.98912,2.98912,0,0,0-.63916,1.02148q-10.09716,15.84961-20.32031,31.82325-28.62964,44.0918-55.08252,89.07714a9.80737,9.80737,0,0,0-.89453,3.45118,6.04461,6.04461,0,0,1-.44727,2.42773,3.04577,3.04577,0,0,1-1.981,1.53418,2.50721,2.50721,0,0,1-2.61962-.51172q-1.21656-1.02393-1.27832-3.77051-.06592-2.7495,2.10888-7.34765Q633.207,273.19857,667.459,220.67171q2.93849-4.5996,5.87891-9.20117,1.40478-2.04345,1.02246-2.55566-.38306-.50978-2.68359,0-23.6455,4.72851-47.03125,10.22363-2.55762.5127-4.98389,1.15039a8.65963,8.65963,0,0,0-2.876,1.08594,13.92987,13.92987,0,0,0-2.23632,1.85352A.36837.36837,0,0,0,614.294,223.35628Zm16.99755-14.4414q-2.68433,2.55762-.38379,2.04394,2.17164-.38232,4.47315-.89453,19.67944-4.34327,39.874-7.7959a9.36,9.36,0,0,0,4.34522-1.27734,9.49794,9.49794,0,0,0,2.30078-3.06738q.509-.8921,1.27783-2.17285,2.04273-3.0674,6.00684-9.07422,5.62206-8.56054,11.94922-18.40332,6.32592-9.83936,10.03222-15.97461.89283-1.91748-.12744-2.10938a6.42977,6.42977,0,0,0-3.19531.70313,48.47309,48.47309,0,0,0-4.53662,2.17285,43.21472,43.21472,0,0,0-4.02588,2.42773q-16.103,10.60987-31.50293,23.00489-15.4021,12.397-30.2251,25.04882Q634.35742,206.23032,631.2915,208.91488Z" transform="translate(-415.15131 -128.02337)"/>
    <path class="cls-1" d="M690.59131,261.44125a4.24922,4.24922,0,0,1,.63916-.51172q4.60034-3.57568,11.31006-7.7959a41.92476,41.92476,0,0,1,13.6748-5.6875,13.37572,13.37572,0,0,1,12.20508,3.13183q6.6438,7.15871-.25537,17.50879-6.90162,10.35206-21.918,20.25586a144.04116,144.04116,0,0,1-32.71728,15.97559q-17.69972,6.06885-32.5254,4.91992a5.23853,5.23853,0,0,1-3.13134-1.3418q-.82984-.958-.064-1.72461.76684-.76756,3.19531-.63964,13.16456,1.1499,28.37159-4.34473a136.93379,136.93379,0,0,0,28.5-14.18652q13.29052-8.68945,20.95947-17.31641,7.66773-8.62647,5.751-13.86719-2.6836-4.98339-10.73536-1.5332a84.68716,84.68716,0,0,0-17.76416,10.92676q-9.7141,7.47656-17.63671,14.76172-7.92555,7.28466-10.60743,9.83984a1.10661,1.10661,0,0,0-.19189.25586.20269.20269,0,0,1-.1919.12793,2.98637,2.98637,0,0,1-2.49218.63867,4.16749,4.16749,0,0,1-2.36426-1.40527,4.33418,4.33418,0,0,1-.57471-2.36426,2.95291,2.95291,0,0,1,1.08594-2.10938l1.02246-1.02246q.89576-1.021,5.62354-7.9873,4.7263-6.96387,15.46386-24.72949,10.73511-17.7627,30.03321-50.99317,26.9641-46.26269,35.5288-53.4209a6.99875,6.99875,0,0,1,4.66456-2.2998,9.23508,9.23508,0,0,1,3.89794.7666,3.31324,3.31324,0,0,1,2.36475,2.23633,10.29364,10.29364,0,0,1-.064,4.40918q-1.40772,8.43457-9.45752,23.77148-8.6924,15.46435-25.24073,36.67871-16.552,21.21534-29.96923,35.65625-2.94141,4.85889-4.47315,7.28516-.89576,1.6626-1.917,3.4502a8.15448,8.15448,0,0,0-.51123.89453,11.688,11.688,0,0,0-1.59766,2.8125Q688.41651,262.97494,690.59131,261.44125Zm33.356-62.36719q-3.8335,6.7749-6.90137,12.01269-7.54174,12.65332-7.28467,13.22754.25488.57568,13.16357-17.06152,15.07911-20.44629,23.26026-34.88965,6.134-11.502,7.34814-14.82519,1.21364-3.3208-.95849-.83008-2.17456,2.49169-6.32617,8.43457-4.15431,5.94287-8.81788,12.97168-4.667,7.02978-8.435,12.9082Q725.22437,196.90218,723.94727,199.07406Z" transform="translate(-415.15131 -128.02337)"/>
    <path class="cls-1" d="M776.3457,274.41293q-9.7141,8.75536-20.06494,16.61425-10.35206,7.85889-18.21142,10.99024-7.86036,3.13036-10.16016-2.1084-1.40552-4.73,4.91992-15.08008a125.48389,125.48389,0,0,1,16.93408-21.34375,105.21789,105.21789,0,0,1,22.36524-17.8916q11.75684-6.90089,21.34277-4.85645a10.24831,10.24831,0,0,1,3.45069,1.53321,6.1624,6.1624,0,0,0,1.21386.57519,1.62588,1.62588,0,0,0,1.3418-.25586,11.3406,11.3406,0,0,0,2.04492-1.72461,91.50255,91.50255,0,0,0,8.1792-8.43554,77.56928,77.56928,0,0,0,6.77393-9.84082q10.86108-18.27393,17.25293-27.98828A207.97068,207.97068,0,0,1,853.5376,168.785a181.95607,181.95607,0,0,1,19.42578-19.1709,15.36154,15.36154,0,0,1,5.4956-2.875,10.34245,10.34245,0,0,1,5.751-.25586q2.55542.70458,2.93945,3.89844-.51195,4.0913-8.43457,15.84668a315.89465,315.89465,0,0,1-26.519,33.54785q-14.12329,15.52881-26.77441,27.1582a87.92176,87.92176,0,0,0-8.05127,8.75488,100.8629,100.8629,0,0,0-6.646,10.16016q-13.03565,21.59911-26.00732,42.55762-12.97266,20.95752-21.72657,34.95312-8.75536,13.99512-9.26562,14.63379a3.39689,3.39689,0,0,1-2.1084,1.66113,1.44145,1.44145,0,0,1-1.72558-.63867q-.512-.89649.63916-2.93945,7.28466-12.65186,18.14794-31.69531,16.103-28.2422,26.45459-45.87989,2.68434-4.21875,2.04493-3.834a38.199,38.199,0,0,0-3.834,3.57812,15.63106,15.63106,0,0,1-1.15039,1.27832Q786.05885,265.65756,776.3457,274.41293Zm-4.47314-21.21485a143.06466,143.06466,0,0,0-22.30127,19.55274q-10.418,11.18555-14.6333,18.5957a19.65,19.65,0,0,0-2.23633,5.17578q-.31786,1.72559,2.74756.06348,9.20142-5.11231,25.04932-18.33887,15.8452-13.22754,32.84472-29.458,1.27589-1.15137,1.15039-1.85351-.12891-.70167-1.917-1.08594Q783.7583,244.827,771.87256,253.19808Zm101.602-90.03613a32.95485,32.95485,0,0,0,3.45068-6.07129q.509-1.59668-.57519-1.27734a11.27981,11.27981,0,0,0-3.0669,1.78906q-1.98339,1.4707-4.02588,3.25879-2.04566,1.7915-3.32275,3.06738-6.77564,7.15869-14.88916,17.31641-8.11743,10.16162-13.73828,18.72363a89.64458,89.64458,0,0,0-5.24024,9.13769q-1.02391,2.36572.25586,1.53321a29.11959,29.11959,0,0,0,4.02588-3.6416q2.74659-2.811,5.94239-6.2627,2.04345-2.2998,4.08984-4.3457A261.24554,261.24554,0,0,0,873.47461,163.162Z" transform="translate(-415.15131 -128.02337)"/>
    <path class="cls-1" d="M829.895,268.46957a1.61177,1.61177,0,0,1-.76709.38379c-.25537.08593-.5332.17187-.83057.25585a.77881.77881,0,0,0-.57519.51075,59.727,59.727,0,0,0-3.70606,6.00683,50.561,50.561,0,0,0-3.38672,7.47657A15.17024,15.17024,0,0,0,819.543,289.493q.25415,2.62061,3.32275,2.62012,9.83936-1.021,22.23731-9.585,12.39477-8.56055,21.34277-16.10352,1.65967-1.27587,2.93945-2.2998a44.0145,44.0145,0,0,1,5.49561-4.08984,19.00368,19.00368,0,0,1,6.13428-2.6836q2.93847-.63867,4.21777,1.40528a21.17749,21.17749,0,0,1-1.15039,7.668q-2.42945,10.99367.76709,14.18653,3.19263,3.19629,9.9043,1.5332a90.06284,90.06284,0,0,0,14.76123-5.23926q2.55468-1.27587,3.45068-.76758.8921.5127.3833,1.79a4.42672,4.42672,0,0,1-2.42822,2.17188,67.43365,67.43365,0,0,1-17.44483,6.4541q-8.37231,1.72559-13.35546-1.46973-4.98414-3.19335-3.96192-13.16308.63867-4.47217-.31933-4.60059-.95874-.126-4.79248,3.19434a1.46652,1.46652,0,0,1-.38331.25586q-1.02465.895-2.30078,1.917a208.94518,208.94518,0,0,1-21.08691,15.71973q-12.01466,7.92188-23.3877,8.81836a14.05041,14.05041,0,0,1-7.02929-1.40625,9.47746,9.47746,0,0,1-4.02539-9.07325,31.89915,31.89915,0,0,1,3.64209-11.50293q3.06738-5.877,5.751-9.96777.638-1.15137,1.15039-2.04492a7.93522,7.93522,0,0,1,3.38672-2.876,6.433,6.433,0,0,1,3.64209-.70312,3.69543,3.69543,0,0,1,2.23682.89453q.82983.76758.31933,2.68457A17.03959,17.03959,0,0,1,829.895,268.46957Z" transform="translate(-415.15131 -128.02337)"/>
    <path class="cls-1" d="M858.77783,368.15511q-1.40478-.64159-1.21435-2.68359.19189-2.04639,2.81152-6.90137,2.62134-4.85889,8.30713-14.18652,5.688-9.32959,15.14453-24.665,10.73511-17.12842,27.34961-43.96387,4.34326-8.17822,17.76416-30.73633,13.41943-22.55567,29.90576-48.82031,16.48608-26.26319,30.09717-45.75293,13.6106-19.48682,18.59473-21.79,7.79444-2.2998,7.73242,3.77051-.06592,6.07177-4.34571,15.5918-4.28319,9.52148-9.07421,17.8916-4.79151,8.373-6.32569,10.7998a.3706.3706,0,0,0-.12744.25489q-17.51075,28.24658-38.66016,56.74414-21.15307,28.50145-32.52539,38.21289a29.6325,29.6325,0,0,1-2.93945,1.917,7.88538,7.88538,0,0,0-1.08642.7666,7.41075,7.41075,0,0,0-1.08594,1.27832q-.64161.895-1.78955,2.81153l-50.73682,82.6875q.38306,0-.19189,1.34179a15.83048,15.83048,0,0,1-1.72559,2.93946,7.82377,7.82377,0,0,1-2.74756,2.42773A3.27278,3.27278,0,0,1,858.77783,368.15511Zm73.102-112.97656q-1.79076,2.8125-1.72509,3.19531.063.38234,2.36425-2.42871,12.65259-16.103,28.24414-38.72363,15.59107-22.62012,28.75537-43.83594,15.71925-26.07129,18.21094-33.61133,2.49316-7.53954-6.58105,4.34473-12.7815,17.63672-25.17676,37.70117Q963.574,201.887,951.68945,222.20589,941.59156,239.33285,931.87988,255.17855Z" transform="translate(-415.15131 -128.02337)"/>
    <path class="cls-1" d="M1060.44824,268.98128a21.20439,21.20439,0,0,1-10.35156-11.24707q-3.96387-11.88428,4.792-27.73242,8.75244-15.8452,24.85742-32.20605a269.46706,269.46706,0,0,1,34.44239-29.58594q18.33837-13.22754,33.67578-19.68164,15.33692-6.45117,22.62109-2.62012,5.62208,3.96387,4.28125,12.01367a54.7324,54.7324,0,0,1-5.49609,16.10254q-4.1543,8.05226-6.709,12.14161l-46.77539,76.16992q-2.8125,4.72851-4.98437,8.30664-12.78077,20.19433,4.85644-3.06739,1.02246-1.27587,2.04493-2.55566,6.13476-8.05224,20.1289-25.30469,13.99365-17.25293,30.79981-35.97656a332.46416,332.46416,0,0,1,31.31054-31.05566q14.50488-12.33106,21.53516-10.416,5.877,2.68506,5.43164,12.20508a93.1332,93.1332,0,0,1-4.3457,22.30176q-3.89942,12.78075-8.3711,25.04883-4.08984,11.50194-6.32617,19.3623-2.23534,7.86034-.31836,9.00977,4.98341,1.02392,20.959-10.54395,15.97559-11.56494,35.46484-27.92383,19.48828-16.35791,35.082-29.90625,14.05664-12.13916,19.041-16.10254a5.23544,5.23544,0,0,1,1.02343-.7666q2.80957-2.30127,7.73243-5.6875a64.39854,64.39854,0,0,1,9.83984-5.62305q4.91895-2.23534,7.60547-1.08691,3.958,2.1753,2.36328,8.81836a63.96271,63.96271,0,0,1-5.30273,13.93066q-3.709,7.28467-5.87891,10.86329a3.29879,3.29879,0,0,0-.51172.89453q-10.48242,17.63671-32.8457,50.60937-14.44337,21.34424-28.69141,43.26074-14.25,21.917-24.08984,39.1709-9.84375,17.25294-10.86328,24.92188-.25782,3.19189,1.27734,3.32226a8.98576,8.98576,0,0,0,3.834-.7666,1.41472,1.41472,0,0,1,.63868-.12793,2.79851,2.79851,0,0,1,2.877.25586,2.08027,2.08027,0,0,1,.76562,2.23633q-.31934,1.3418-2.748,1.98144a20.97307,20.97307,0,0,1-5.49414,1.14942,6.74325,6.74325,0,0,1-5.24024-1.66113q-3.835-4.85889,3.00391-20.89551,6.835-16.04,19.873-37.8291,13.03418-21.78808,27.60546-43.77246,14.56934-21.97853,25.94336-38.59571,9.583-13.92773,13.80274-20.57617a1.4842,1.4842,0,0,0,.25586-.38281q1.01952-1.53369,3.70508-5.87891,2.68359-4.34327,5.55859-9.52148,2.877-5.1753,4.60156-9.1377,1.72559-3.95948.83008-4.60058-1.02246-.38379-4.15234,1.46972-3.13477,1.853-6.90235,4.60059-3.77051,2.74952-6.77344,5.17578-3.00293,2.42871-3.89648,3.19531-3.709,3.06738-11.63086,10.22363-10.60839,9.33106-25.30469,21.8545-14.69823,12.52587-29.96875,24.28222a249.88676,249.88676,0,0,1-27.541,18.78711q-12.26954,7.0298-18.02149,5.23926-4.85742-2.17089-4.53711-9.71289a71.15226,71.15226,0,0,1,3.64258-18.01953q3.32228-10.478,7.541-21.4707a231.6622,231.6622,0,0,0,8.30664-24.41016q2.80957-10.478-1.40625-12.65234-4.47363-1.27588-15.33594,8.499a330.11251,330.11251,0,0,0-24.85742,25.49609q-13.9922,15.71925-27.668,32.46094-13.67871,16.74464-23.89941,29.52246-7.92481,9.96826-11.88477,14.69727-1.27881,1.53369-4.793,5.36816a59.96487,59.96487,0,0,1-7.28418,6.77344q-3.772,2.93847-5.6875,2.04394-2.8125-2.17089-.57519-8.88183a93.96309,93.96309,0,0,1,6.07031-13.99414q3.835-7.28467,6.13477-10.99121c.25585-.42481.46679-.76661.63867-1.02246l46.77636-76.169q1.40332-2.17236,5.17579-9.20215a95.08017,95.08017,0,0,0,6.19726-14.12207q2.42579-7.09276-.38281-9.39355-5.3672-2.6836-19.10742,4.02636-13.73732,6.709-30.73535,19.48926a295.01768,295.01768,0,0,0-32.20606,28.11621q-15.20947,15.33692-23.5791,29.77832-8.37159,14.44337-4.91992,24.40918a9.37337,9.37337,0,0,0,.51074,1.15039,10.91509,10.91509,0,0,0,.83105,1.40625c.29688.42676.61719.59668.958.51075a2.89642,2.89642,0,0,1,2.04492-.25489,3.79367,3.79367,0,0,1,1.78907,1.02246q4.08837,4.85742,2.81152,8.17871Q1064.66455,271.02816,1060.44824,268.98128Z" transform="translate(-415.15131 -128.02337)"/>
    <path class="cls-1" d="M1375.73438,275.75472q3.45117-1.78857,4.08984-.25586.6372,1.53369-2.42871,3.70606a70.861,70.861,0,0,1-12.46,5.6875q-7.60548,2.74951-13.61133,1.66113-6.00879-1.084-6.2627-9.64844v-.63965q.126-1.7871-.25488-1.85253a5.64643,5.64643,0,0,0-2.17285,1.08593q-19.812,12.90967-29.0752,16.10352-9.26367,3.19189-10.92675.25488-2.04346-4.08837,5.1123-12.71582a90.52184,90.52184,0,0,1,18.4668-16.42285q11.31152-7.793,21.66308-9.39356,10.35058-1.5952,14.56934,8.24317a2.46092,2.46092,0,0,1-.38379,2.30078,3.878,3.878,0,0,1-2.04492,1.40625,3.66566,3.66566,0,0,1-2.875-.51172,5.22687,5.22687,0,0,1-2.23731-2.17285,1.13237,1.13237,0,0,1,.12793-.51074c.084-.16992.16993-.33985.25586-.51172.084-.16895.16992-.33887.25586-.51074a.55111.55111,0,0,0,0-.51172q-3.19629-4.3418-10.99121-1.27735a71.73464,71.73464,0,0,0-16.48633,9.585,154.37787,154.37787,0,0,0-14.69726,12.333q-6.00879,5.8169-5.623,7.09278.51123,1.27881,10.0957-4.21778,9.58594-5.49316,31.43946-20.57617a3.609,3.609,0,0,1,2.36425-.44726,2.871,2.871,0,0,1,1.98145,1.34277,3.04944,3.04944,0,0,1,.12793,3.06641q-4.85889,10.481-1.08691,12.9082,3.769,2.42871,10.86328.38379A55.0423,55.0423,0,0,0,1375.73438,275.75472Z" transform="translate(-415.15131 -128.02337)"/>
    <path class="cls-1" d="M1324.99707,368.15511q-1.40478-.64159-1.21387-2.68359.19189-2.04639,2.81153-6.90137,2.6206-4.85889,8.30761-14.18652,5.688-9.32959,15.14454-24.665,10.73438-17.12842,27.34863-43.96387,4.34326-8.17822,17.76465-30.73633,13.41944-22.55567,29.90527-48.82031,16.48681-26.26319,30.09766-45.75293,13.61132-19.48682,18.59472-21.79,7.79443-2.2998,7.73242,3.77051-.06591,6.07177-4.3457,15.5918-4.2832,9.52148-9.07324,17.8916-4.793,8.373-6.32617,10.7998a.36939.36939,0,0,0-.12793.25489q-17.51075,28.24658-38.66016,56.74414-21.15234,28.50145-32.52539,38.21289a29.6325,29.6325,0,0,1-2.93945,1.917,7.7902,7.7902,0,0,0-1.08594.7666,7.408,7.408,0,0,0-1.08691,1.27832q-.64014.895-1.78907,2.81153l-50.7373,82.6875q.38379,0-.19141,1.34179a15.88535,15.88535,0,0,1-1.72558,2.93946,7.83081,7.83081,0,0,1-2.74707,2.42773A3.27468,3.27468,0,0,1,1324.99707,368.15511Zm73.10254-112.97656q-1.79151,2.8125-1.72559,3.19531.063.38234,2.36426-2.42871,12.65332-16.103,28.24414-38.72363,15.5918-22.62012,28.75586-43.83594,15.71924-26.07129,18.21192-33.61133,2.49169-7.53954-6.582,4.34473-12.78075,17.63672-25.17675,37.70117-12.39844,20.06689-24.28223,40.38574Q1407.812,239.33285,1398.09961,255.17855Z" transform="translate(-415.15131 -128.02337)"/>
    <path class="cls-1" d="M1417.01367,295.05257q-4.98339,0-5.8789-3.19531-.89209-3.19189.83105-8.11523a64.98415,64.98415,0,0,1,4.792-10.35157q3.06738-5.43017,6.13477-9.96875,3.06738-4.53514,4.85644-6.96484a6.305,6.305,0,0,1,.89453-1.27832q-.76611-2.04345,1.40625-4.53711a13.60345,13.60345,0,0,1,5.11133-3.706q2.93849-1.2129,4.21778.44726a2.84908,2.84908,0,0,1,.38379,2.6836,10.038,10.038,0,0,1-1.40625,2.42871,4.12555,4.12555,0,0,0-.51075.63867q-4.85888,6.90087-10.54394,15.40039a127.81026,127.81026,0,0,0-8.499,14.25q-2.17382,4.98339,2.748,5.49512,4.91895.51269,12.78027-1.53321,7.85889-2.04345,14.44141-4.40918a66.83018,66.83018,0,0,0,7.85938-3.13183,2.2123,2.2123,0,0,1,2.2373-.25489,1.51316,1.51316,0,0,1,.70215,1.59668,3.593,3.593,0,0,1-1.78906,2.23731,105.5551,105.5551,0,0,1-21.66211,8.43457Q1422.76367,295.05208,1417.01367,295.05257Zm28.5-60.706q3.44971.25781,3.19531,2.10937a6.19754,6.19754,0,0,1-2.49218,3.70606,11.40088,11.40088,0,0,1-4.7295,2.42773,2.96769,2.96769,0,0,1-3.6416-1.59668,1.15532,1.15532,0,0,1,.19141-1.21484,3.97877,3.97877,0,0,1,1.27832-1.02246c.55273-.29688,1.042-.5752,1.46973-.83008a3.90384,3.90384,0,0,0,.7666-.25586c.16992-.084.25586-.16992.25586-.25586a3.30333,3.30333,0,0,1,3.70605-3.06738Z" transform="translate(-415.15131 -128.02337)"/>
    <path class="cls-1" d="M1436.3125,321.25179a2.48491,2.48491,0,0,1-3.06738.5752,4.87885,4.87885,0,0,1-2.23633-2.74805,4.22134,4.22134,0,0,1,.31934-3.70605q.64159-1.40772,23.64355-38.46778a3.45554,3.45554,0,0,1,.63867-1.34179,10.169,10.169,0,0,1,1.02246-1.21485q15.59034-25.1748,33.61133-53.22851,18.02051-28.05177,32.71777-49.0127,14.69532-20.95752,20.06446-24.793,5.23974-1.27587,6.4541,1.40528,1.21289,2.68506.12793,7.2207a57.53616,57.53616,0,0,1-2.81152,8.69141q-1.7256,4.1543-2.49219,5.68652-10.09717,20.32031-31.375,49.71484a410.02118,410.02118,0,0,1-50.418,57q-4.09131,6.51709-7.668,12.0127-4.60107,6.90087-6.19824,9.96875-1.59669,3.06738,2.42773.06347,4.0254-3.00439,16.42285-14.377Q1502.64063,251.98519,1519,246.23226q2.5547-.6372,3.38672.5752a8.47516,8.47516,0,0,1,1.21387,3.13086,1.4458,1.4458,0,0,1,.12793.63964q.50976,4.09131-7.15723,8.88184a153.15911,153.15911,0,0,1-16.10254,8.75488q-4.4751,2.17383-7.41211,3.834a13.33475,13.33475,0,0,0-3.13184,3.45019,27.74194,27.74194,0,0,0-1.98046,4.60059,78.69427,78.69427,0,0,0-3.57813,11.95019,20.74187,20.74187,0,0,0,.38281,11.94922q1.91748,5.10938,10.35157,4.98438a2.97694,2.97694,0,0,1,2.36523.63867,1.23581,1.23581,0,0,1,.31934,1.66113q-.5127.89356-2.93946,1.15039-12.78222.38379-16.3584-6.26172-3.58006-6.64746-.51171-17.2539,1.1499-4.08838.57519-4.40918-.57569-.31641-4.02539,2.876-8.94726,8.17968-19.3623,17.31738-10.415,9.13476-16.03907,13.99414Q1436.69825,320.867,1436.3125,321.25179Zm49.9707-82.04883q-5.62646,8.565-6.32617,10.416-.7046,1.8545,6.83692-7.09277a426.96664,426.96664,0,0,0,30.417-39.81055,317.49756,317.49756,0,0,0,19.68164-33.03613q2.68359-5.36719,3.57812-7.668.89209-2.30127.44727-2.30078-.44971,0-1.66113,1.46972-1.21729,1.47071-2.876,3.77051-1.6626,2.2998-3.32324,4.60059-.76611,1.02391-1.40528,1.917Q1512.22413,198.56527,1486.2832,239.203Z" transform="translate(-415.15131 -128.02337)"/>
  </g>
</svg>
