<svg id="Layer_1" data-name="Layer 1" xmlns="http://www.w3.org/2000/svg" xmlns:xlink="http://www.w3.org/1999/xlink" width="1000" height="1000" viewBox="0 0 1000 1000">
  <defs>
    <style>
      .cls-1 {
        mask: url(#mask);
      }

      .cls-2 {
        fill: #fff;
      }

      .cls-3 {
        mask: url(#mask-2);
      }

      .cls-4 {
        filter: url(#luminosity-noclip-2);
      }

      .cls-5 {
        filter: url(#luminosity-noclip);
      }
    
</style>
    <filter id="luminosity-noclip" x="188.97872" y="215.21277" width="599.6383" height="477.95745" filterUnits="userSpaceOnUse" color-interpolation-filters="sRGB">
      <feFlood flood-color="#fff" result="bg"></feFlood>
      <feBlend in="SourceGraphic" in2="bg"></feBlend>
    </filter>
    <mask id="mask" x="188.97872" y="215.21277" width="599.6383" height="477.95745" maskUnits="userSpaceOnUse">
      <g class="cls-5">
        <rect x="317.85106" y="198.10569" width="32.93617" height="206.04255" transform="translate(-105.17505 397.51988) rotate(-54.38053)"></rect>
        <rect x="751.85106" y="245.34043" width="36.76596" height="78.6383"></rect>
        <rect x="188.97872" y="215.21277" width="64.34043" height="477.95745"></rect>
      </g>
    </mask>
    <filter id="luminosity-noclip-2" x="330.90445" y="349.72019" width="447.7764" height="295.52004" filterUnits="userSpaceOnUse" color-interpolation-filters="sRGB">
      <feFlood flood-color="#fff" result="bg"></feFlood>
      <feBlend in="SourceGraphic" in2="bg"></feBlend>
    </filter>
    <mask id="mask-2" x="330.90445" y="349.72019" width="447.7764" height="295.52004" maskUnits="userSpaceOnUse">
      <g class="cls-4">
        <rect x="672.097" y="333.22273" width="36.08511" height="152.52623" transform="translate(610.38971 -389.01977) rotate(53.61431)"></rect>
        <rect x="749.74468" y="364.48936" width="28.93617" height="264.85106"></rect>
        <rect x="523.20253" y="571.09991" width="21.19149" height="82.8586" transform="translate(721.72242 -177.92455) rotate(54.44439)"></rect>
        <rect x="455.7234" y="569.08511" width="20.93617" height="80.68085" transform="translate(-300.84315 629.22045) rotate(-54.06345)"></rect>
      </g>
    </mask>
  </defs>
  <title>logo</title>
  <rect width="1000" height="1000"></rect>
  <g class="cls-1">
    <path class="cls-2" d="M774.92253,284.2455l-21.90042-28.74393a1.38922,1.38922,0,0,0-1.947-.26309L502.02029,444.99684a1.38922,1.38922,0,0,1-1.67487.0068L295.062,291.21344a1.38923,1.38923,0,0,1-.55628-1.11183V257.14783a1.38922,1.38922,0,0,0-1.38922-1.38922H251.06738a1.38922,1.38922,0,0,0-1.38922,1.38922V624.48431a1.38923,1.38923,0,0,0,1.38922,1.38923h42.04914a1.38923,1.38923,0,0,0,1.38922-1.38923v-282.285a1.38922,1.38922,0,0,1,2.22212-1.11185L499.146,492.723a4.77529,4.77529,0,0,1,.93533.92774h0a1.38924,1.38924,0,0,0,1.947.26309L774.65944,286.19246A1.38922,1.38922,0,0,0,774.92253,284.2455Z"></path>
  </g>
  <g class="cls-3">
    <path class="cls-2" d="M775.16438,414.40227l-22.38411-29.37882a.99018.99018,0,0,0-1.3877-.18752l-1.20612.919a.99017.99017,0,0,1-.60009.20256H708.18163a.99016.99016,0,0,0-.99016.99017V418.023a.99017.99017,0,0,1-.39008.7876L503.22609,573.91735a.99017.99017,0,0,1-1.19376.00485l-147.39918-110.425a.99015.99015,0,0,0-1.38612.19878l-22.14481,29.55962a.99017.99017,0,0,0,.19878,1.38613L495.70079,617.80288a.98976.98976,0,0,1,.19394.19237l4.42846,5.81229a.99017.99017,0,0,0,1.3877.18752l.52315-.39861a.99019.99019,0,0,1,1.19378-.00484h0a.99017.99017,0,0,0,1.38614-.19877l2.99289-3.995a.99026.99026,0,0,1,.19236-.19394l197.602-150.55568a.99017.99017,0,0,1,1.59026.78761V623.88337a.99017.99017,0,0,0,.99016.99017h40.91329a.99017.99017,0,0,0,.99016-.99017V435.24577a.9902.9902,0,0,1,.39008-.78761L774.97686,415.79A.99017.99017,0,0,0,775.16438,414.40227Z"></path>
  </g>
</svg>
